<svg width="64" height="64" viewBox="0 0 64 64" fill="none" xmlns="http://www.w3.org/2000/svg">
<rect width="64" height="64" rx="15" fill="black"/>
<path d="M6.88915 34.444C6.88915 32.708 7.24049 31.189 7.94315 29.887C8.64582 28.5643 9.60682 27.5413 10.8262 26.818C12.0662 26.0947 13.4405 25.733 14.9492 25.733C16.4372 25.733 17.7288 26.0533 18.8242 26.694C19.9195 27.3347 20.7358 28.1407 21.2732 29.112V26.012H24.1252V43H21.2732V39.838C20.7152 40.83 19.8782 41.6567 18.7622 42.318C17.6668 42.9587 16.3855 43.279 14.9182 43.279C13.4095 43.279 12.0455 42.907 10.8262 42.163C9.60682 41.419 8.64582 40.3753 7.94315 39.032C7.24049 37.6887 6.88915 36.1593 6.88915 34.444ZM21.2732 34.475C21.2732 33.1937 21.0148 32.0777 20.4982 31.127C19.9815 30.1763 19.2788 29.453 18.3902 28.957C17.5222 28.4403 16.5612 28.182 15.5072 28.182C14.4532 28.182 13.4922 28.43 12.6242 28.926C11.7562 29.422 11.0638 30.1453 10.5472 31.096C10.0305 32.0467 9.77215 33.1627 9.77215 34.444C9.77215 35.746 10.0305 36.8827 10.5472 37.854C11.0638 38.8047 11.7562 39.5383 12.6242 40.055C13.4922 40.551 14.4532 40.799 15.5072 40.799C16.5612 40.799 17.5222 40.551 18.3902 40.055C19.2788 39.5383 19.9815 38.8047 20.4982 37.854C21.0148 36.8827 21.2732 35.7563 21.2732 34.475ZM49.3214 25.702C50.644 25.702 51.822 25.981 52.8554 26.539C53.8887 27.0763 54.705 27.8927 55.3044 28.988C55.9037 30.0833 56.2034 31.4163 56.2034 32.987V43H53.4134V33.39C53.4134 31.6953 52.9897 30.4037 52.1424 29.515C51.3157 28.6057 50.1894 28.151 48.7634 28.151C47.296 28.151 46.1284 28.6263 45.2604 29.577C44.3924 30.507 43.9584 31.8607 43.9584 33.638V43H41.1684V33.39C41.1684 31.6953 40.7447 30.4037 39.8974 29.515C39.0707 28.6057 37.9444 28.151 36.5184 28.151C35.051 28.151 33.8834 28.6263 33.0154 29.577C32.1474 30.507 31.7134 31.8607 31.7134 33.638V43H28.8924V26.012H31.7134V28.461C32.2714 27.5723 33.0154 26.8903 33.9454 26.415C34.896 25.9397 35.9397 25.702 37.0764 25.702C38.5024 25.702 39.763 26.0223 40.8584 26.663C41.9537 27.3037 42.77 28.244 43.3074 29.484C43.7827 28.2853 44.568 27.3553 45.6634 26.694C46.7587 26.0327 47.978 25.702 49.3214 25.702Z" fill="white"/>
</svg>